<?xml version="1.0" encoding="utf-8"?>
<!-- Generator: Adobe Illustrator 15.1.0, SVG Export Plug-In . SVG Version: 6.00 Build 0)  -->
<!DOCTYPE svg PUBLIC "-//W3C//DTD SVG 1.1//EN" "http://www.w3.org/Graphics/SVG/1.1/DTD/svg11.dtd">
<svg version="1.1" id="Layer_1" xmlns="http://www.w3.org/2000/svg" xmlns:xlink="http://www.w3.org/1999/xlink" x="0px" y="0px"
	 width="792px" height="612px" viewBox="0 0 792 612" enable-background="new 0 0 792 612" xml:space="preserve">
<path fill-rule="evenodd" clip-rule="evenodd" stroke="#000000" stroke-width="2.9999" stroke-linecap="round" stroke-linejoin="round" stroke-miterlimit="22.9256" d="
	M282.645,515.475c14.595-8.453,26.883-22.152,40.53-45.499c13.647-23.346,28.655-56.338,36.455-101.631
	c7.799-45.293,8.392-102.886,5.682-146.698c-2.71-43.812-8.722-73.843-15.343-90.473c-6.621-16.63-13.851-19.859-27.315-4.556
	c-13.465,15.303-33.165,49.139-45.581,62.231c-12.415,13.092-17.545,5.44-28.939-15.89s-29.053-56.338-42.264-73.164
	c-16.347-20.821-31.983-18.399-41.264,6.394c-7.5,20.034-13.736,58.745-18.142,82.523c-4.406,23.778-6.979,32.624-22.774,23.902
	c-15.795-8.722-44.811-35.009-62.275-45.521c-17.465-10.511-23.378-5.246-24.656,12.608c-1.278,17.854,2.08,48.296,12.755,90.874
	c10.675,42.578,28.668,97.292,49.809,138.1s45.428,67.714,65.501,85.835c20.072,18.121,35.928,27.459,52.398,31.1
	C236.814,529.943,265.281,525.533,282.645,515.475L282.645,515.475z M510.354,515.475c-14.595-8.454-26.883-22.152-40.529-45.499
	c-13.647-23.346-28.655-56.338-36.455-101.631s-8.392-102.886-5.682-146.698s8.723-73.843,15.344-90.473
	c6.62-16.63,13.85-19.859,27.315-4.556c13.464,15.303,33.164,49.139,45.579,62.231c12.416,13.092,17.546,5.44,28.94-15.89
	s29.054-56.338,42.264-73.164c16.348-20.821,31.983-18.399,41.264,6.394c7.5,20.034,13.736,58.745,18.142,82.523
	c4.406,23.778,6.979,32.624,22.774,23.902c15.795-8.722,44.812-35.009,62.275-45.521c17.465-10.512,23.378-5.246,24.656,12.608
	c1.278,17.854-2.08,48.296-12.755,90.874c-10.675,42.578-28.669,97.292-49.809,138.1c-21.141,40.809-45.429,67.714-65.501,85.835
	s-35.929,27.459-52.398,31.1C556.186,529.943,527.72,525.533,510.354,515.475z"/>
</svg>
